<?xml version="1.0" encoding="UTF-8"?>
<svg id="_圖層_2" data-name="圖層 2" xmlns="http://www.w3.org/2000/svg" xmlns:xlink="http://www.w3.org/1999/xlink" viewBox="0 0 323.39 129.96">
  <defs>
    <style>
      .cls-1 {
        stroke: url(#_未命名漸層_14);
      }

      .cls-1, .cls-2 {
        fill: none;
        stroke-miterlimit: 10;
      }

      .cls-3 {
        fill: #fff;
      }

      .cls-4 {
        fill: url(#_未命名漸層_14-8);
      }

      .cls-5 {
        fill: url(#_未命名漸層_14-7);
      }

      .cls-6 {
        fill: url(#_未命名漸層_14-4);
      }

      .cls-7 {
        fill: url(#_未命名漸層_14-5);
      }

      .cls-8 {
        fill: url(#_未命名漸層_14-2);
      }

      .cls-2 {
        stroke: url(#_未命名漸層_14-9);
      }

      .cls-9 {
        fill: url(#_未命名漸層_14-6);
      }

      .cls-10 {
        fill: url(#_未命名漸層_14-3);
      }
    </style>
    <radialGradient id="_未命名漸層_14" data-name="未命名漸層 14" cx="64.98" cy="64.98" fx="64.98" fy="64.98" r="64.98" gradientUnits="userSpaceOnUse">
      <stop offset="0" stop-color="#dfc174"/>
      <stop offset=".43" stop-color="#dcbd71"/>
      <stop offset=".79" stop-color="#d2b36b"/>
      <stop offset="1" stop-color="#caa965"/>
    </radialGradient>
    <radialGradient id="_未命名漸層_14-2" data-name="未命名漸層 14" cx="118.21" cy="106.45" fx="118.21" fy="106.45" r="14.13" xlink:href="#_未命名漸層_14"/>
    <radialGradient id="_未命名漸層_14-3" data-name="未命名漸層 14" cx="62.98" fx="62.98" r="24.88" xlink:href="#_未命名漸層_14"/>
    <radialGradient id="_未命名漸層_14-4" data-name="未命名漸層 14" cx="62.98" fx="62.98" r="24.88" xlink:href="#_未命名漸層_14"/>
    <radialGradient id="_未命名漸層_14-5" data-name="未命名漸層 14" cx="255.89" fx="255.89" r="25.04" xlink:href="#_未命名漸層_14"/>
    <radialGradient id="_未命名漸層_14-6" data-name="未命名漸層 14" cx="255.89" fx="255.89" r="25.04" xlink:href="#_未命名漸層_14"/>
    <radialGradient id="_未命名漸層_14-7" data-name="未命名漸層 14" cx="308.97" cy="106.45" fx="308.97" fy="106.45" r="14.13" xlink:href="#_未命名漸層_14"/>
    <radialGradient id="_未命名漸層_14-8" data-name="未命名漸層 14" cx="162.03" cy="64.21" fx="162.03" fy="64.21" r="8.16" xlink:href="#_未命名漸層_14"/>
    <radialGradient id="_未命名漸層_14-9" data-name="未命名漸層 14" cx="255.98" fx="255.98" xlink:href="#_未命名漸層_14"/>
  </defs>
  <g id="_圖層_1-2" data-name="圖層 1">
    <g>
      <path class="cls-1" d="M95.93,121.56c-9.19,5.04-19.73,7.9-30.95,7.9C29.37,129.46,.5,100.59,.5,64.98S29.37,.5,64.98,.5s64.48,28.87,64.48,64.48c0,4.36-.43,8.62-1.26,12.74"/>
      <path class="cls-8" d="M110.6,111.19c1.36-.45,2.8-.96,4.25-1.45l.15,.36c-1.96,1.36-4.91,3.38-8.95,5.79-.09,.39-.36,.72-.69,.84l-1.57-3.38c.84-.21,2.29-.66,4.04-1.24v-10.07h-3.44l-.24-.87h3.68v-7.93l3.89,.36c-.06,.39-.3,.72-1.12,.81v6.75h.54l1.42-2.23s1.6,1.6,2.47,2.62c-.06,.33-.36,.48-.78,.48h-3.65v9.13Zm18.87-5.85s1.99,1.57,3.16,2.68c-.06,.33-.39,.48-.81,.48h-8.08v10.97c-.03,.18-.93,.81-2.38,.81h-.48v-11.78h-8.2l-.24-.87h8.44v-11.97h-7.2l-.24-.87h13.8l1.69-2.17s1.9,1.48,3.01,2.56c-.09,.33-.39,.48-.81,.48h-7.38v11.97h3.98l1.75-2.29Zm-14.2-7.87c6.45,4.94,3.71,10.46,1.27,7.93,.03-2.53-.84-5.58-1.66-7.78l.39-.15Zm9.67,8.53c.78-2.23,1.69-5.7,2.26-8.68l4.04,1.27c-.15,.36-.48,.63-1.15,.63-1.36,2.56-3.04,5.18-4.7,6.99l-.45-.21Z"/>
      <g>
        <g>
          <path class="cls-3" d="M35.68,50.76l2.97-3.48c1.74-2,4.13-3.03,7.22-3.03,5.42,0,8.83,3.74,8.83,8.19,0,1.81-.64,3.42-1.74,4.71-.97,.97-3.16,2.84-4.64,3.87,5.29,1.1,9.35,4.9,9.35,9.61,0,10.25-11.86,15.22-16.31,15.22-2.58,0-4.9-1.29-5.55-1.87-.77-.77-1.16-1.35-1.16-2.06,0-.97,.71-1.68,1.29-2.06,.39-.26,.77-.26,1.16,0,1.55,1.61,4.19,3.35,7.61,3.35,4.45,0,8.32-2.77,8.32-10.25,0-6.84-4.97-8.9-8.64-8.9-1.48,0-2.97,.32-3.8,.64l-.26-.97c6.77-2.19,9.93-4.64,9.93-9.61,0-4.38-2.9-6.64-6.38-6.64s-5.48,1.68-7.54,4.06l-.64-.77Z"/>
          <path class="cls-3" d="M91.32,77.52c-.71,1.74-1.68,4.9-2.32,7.54h-22.96v-.84c3.61-3.61,7.22-7.74,10.19-11.35,3.87-4.77,7.87-10.32,7.87-15.93s-2.9-9.29-8-9.29c-4.58,0-6.9,3.35-8.45,5.29l-.77-.64,3.29-4.45c1.81-2.13,4.58-3.74,8.25-3.74,5.29,0,10.19,4.13,10.19,10.83,0,5.55-2.06,8.77-8.06,15.61-3.16,3.48-6.51,7.22-9.67,10.51h13.15c3.35,0,4.39-.26,6.51-3.87l.77,.32Z"/>
        </g>
        <g>
          <path class="cls-10" d="M35.68,50.76l2.97-3.48c1.74-2,4.13-3.03,7.22-3.03,5.42,0,8.83,3.74,8.83,8.19,0,1.81-.64,3.42-1.74,4.71-.97,.97-3.16,2.84-4.64,3.87,5.29,1.1,9.35,4.9,9.35,9.61,0,10.25-11.86,15.22-16.31,15.22-2.58,0-4.9-1.29-5.55-1.87-.77-.77-1.16-1.35-1.16-2.06,0-.97,.71-1.68,1.29-2.06,.39-.26,.77-.26,1.16,0,1.55,1.61,4.19,3.35,7.61,3.35,4.45,0,8.32-2.77,8.32-10.25,0-6.84-4.97-8.9-8.64-8.9-1.48,0-2.97,.32-3.8,.64l-.26-.97c6.77-2.19,9.93-4.64,9.93-9.61,0-4.38-2.9-6.64-6.38-6.64s-5.48,1.68-7.54,4.06l-.64-.77Z"/>
          <path class="cls-6" d="M91.32,77.52c-.71,1.74-1.68,4.9-2.32,7.54h-22.96v-.84c3.61-3.61,7.22-7.74,10.19-11.35,3.87-4.77,7.87-10.32,7.87-15.93s-2.9-9.29-8-9.29c-4.58,0-6.9,3.35-8.45,5.29l-.77-.64,3.29-4.45c1.81-2.13,4.58-3.74,8.25-3.74,5.29,0,10.19,4.13,10.19,10.83,0,5.55-2.06,8.77-8.06,15.61-3.16,3.48-6.51,7.22-9.67,10.51h13.15c3.35,0,4.39-.26,6.51-3.87l.77,.32Z"/>
        </g>
      </g>
      <g>
        <g>
          <path class="cls-3" d="M228.46,50.95l2.97-3.48c1.74-2,4.13-3.03,7.22-3.03,5.42,0,8.83,3.74,8.83,8.19,0,1.81-.64,3.42-1.74,4.71-.97,.97-3.16,2.84-4.64,3.87,5.29,1.1,9.35,4.9,9.35,9.61,0,10.25-11.86,15.22-16.31,15.22-2.58,0-4.9-1.29-5.55-1.87-.77-.77-1.16-1.35-1.16-2.06,0-.97,.71-1.68,1.29-2.06,.39-.26,.77-.26,1.16,0,1.55,1.61,4.19,3.35,7.61,3.35,4.45,0,8.32-2.77,8.32-10.25,0-6.84-4.97-8.9-8.64-8.9-1.48,0-2.97,.32-3.8,.64l-.26-.97c6.77-2.19,9.93-4.64,9.93-9.61,0-4.38-2.9-6.64-6.38-6.64s-5.48,1.68-7.54,4.06l-.64-.77Z"/>
          <path class="cls-3" d="M269.47,61.92c1.48-.71,3.1-1.1,3.93-1.1,6.58,0,10.96,5.29,10.96,11.28,0,8.19-5.29,13.93-12.32,13.93s-12.57-5.87-12.57-15.93c0-13.22,9.74-21.15,16.12-23.99,2.26-1.03,4.97-1.74,7.54-2.19l.19,.97c-2.13,.39-4.58,1.29-6.77,2.45-3.93,2.13-9.93,6.64-11.74,16.77l4.64-2.19Zm1.48,1.74c-2.64,0-4.64,.77-6.25,1.74-.32,1.42-.39,3.16-.39,5.16,0,7.54,2.9,14.12,8.58,14.12s6.77-5.67,6.77-10.19c0-5.29-2.58-10.83-8.71-10.83Z"/>
        </g>
        <g>
          <path class="cls-7" d="M228.46,50.95l2.97-3.48c1.74-2,4.13-3.03,7.22-3.03,5.42,0,8.83,3.74,8.83,8.19,0,1.81-.64,3.42-1.74,4.71-.97,.97-3.16,2.84-4.64,3.87,5.29,1.1,9.35,4.9,9.35,9.61,0,10.25-11.86,15.22-16.31,15.22-2.58,0-4.9-1.29-5.55-1.87-.77-.77-1.16-1.35-1.16-2.06,0-.97,.71-1.68,1.29-2.06,.39-.26,.77-.26,1.16,0,1.55,1.61,4.19,3.35,7.61,3.35,4.45,0,8.32-2.77,8.32-10.25,0-6.84-4.97-8.9-8.64-8.9-1.48,0-2.97,.32-3.8,.64l-.26-.97c6.77-2.19,9.93-4.64,9.93-9.61,0-4.38-2.9-6.64-6.38-6.64s-5.48,1.68-7.54,4.06l-.64-.77Z"/>
          <path class="cls-9" d="M269.47,61.92c1.48-.71,3.1-1.1,3.93-1.1,6.58,0,10.96,5.29,10.96,11.28,0,8.19-5.29,13.93-12.32,13.93s-12.57-5.87-12.57-15.93c0-13.22,9.74-21.15,16.12-23.99,2.26-1.03,4.97-1.74,7.54-2.19l.19,.97c-2.13,.39-4.58,1.29-6.77,2.45-3.93,2.13-9.93,6.64-11.74,16.77l4.64-2.19Zm1.48,1.74c-2.64,0-4.64,.77-6.25,1.74-.32,1.42-.39,3.16-.39,5.16,0,7.54,2.9,14.12,8.58,14.12s6.77-5.67,6.77-10.19c0-5.29-2.58-10.83-8.71-10.83Z"/>
        </g>
      </g>
      <path class="cls-5" d="M301.36,111.19c1.36-.45,2.8-.96,4.25-1.45l.15,.36c-1.96,1.36-4.91,3.38-8.95,5.79-.09,.39-.36,.72-.69,.84l-1.57-3.38c.84-.21,2.29-.66,4.04-1.24v-10.07h-3.44l-.24-.87h3.68v-7.93l3.89,.36c-.06,.39-.3,.72-1.12,.81v6.75h.54l1.42-2.23s1.6,1.6,2.47,2.62c-.06,.33-.36,.48-.78,.48h-3.65v9.13Zm18.87-5.85s1.99,1.57,3.16,2.68c-.06,.33-.39,.48-.81,.48h-8.08v10.97c-.03,.18-.93,.81-2.38,.81h-.48v-11.78h-8.2l-.24-.87h8.44v-11.97h-7.2l-.24-.87h13.8l1.69-2.17s1.9,1.48,3.01,2.56c-.09,.33-.39,.48-.81,.48h-7.38v11.97h3.98l1.75-2.29Zm-14.2-7.87c6.45,4.94,3.71,10.46,1.27,7.93,.03-2.53-.84-5.58-1.66-7.78l.39-.15Zm9.67,8.53c.78-2.23,1.69-5.7,2.26-8.68l4.04,1.27c-.15,.36-.48,.63-1.15,.63-1.36,2.56-3.04,5.18-4.7,6.99l-.45-.21Z"/>
      <path class="cls-4" d="M173,63.39c-2.48,2.93-5.02,4.37-6.46,4.37-.99,0-2.48-.84-4.47-2.48-1.74-1.39-3.23-2.09-4.37-2.09-1.79,0-4.02,.99-6.65,3.03v-1.19c3.23-3.33,5.56-4.37,7.05-4.37,1.29,0,2.93,.84,4.97,2.53,1.59,1.34,2.88,2.04,3.72,2.04,2.23,0,4.37-1.29,6.21-3.13v1.29Z"/>
      <path class="cls-2" d="M286.93,121.56c-9.19,5.04-19.73,7.9-30.95,7.9-35.61,0-64.48-28.87-64.48-64.48S220.37,.5,255.98,.5s64.48,28.87,64.48,64.48c0,4.36-.43,8.62-1.26,12.74"/>
    </g>
  </g>
</svg>