<?xml version="1.0" encoding="UTF-8"?>
<svg id="_圖層_2" data-name="圖層 2" xmlns="http://www.w3.org/2000/svg" xmlns:xlink="http://www.w3.org/1999/xlink" viewBox="0 0 404.48 19.89">
  <defs>
    <style>
      .cls-1 {
        letter-spacing: .52em;
      }

      .cls-1, .cls-2, .cls-3, .cls-4, .cls-5, .cls-6, .cls-7, .cls-8, .cls-9, .cls-10, .cls-11, .cls-12, .cls-13 {
        font-family: MinionConceptRoman-Display, 'Minion Variable Concept';
        font-variation-settings: 'wght' 400, 'opsz' 36;
      }

      .cls-2 {
        letter-spacing: .54em;
      }

      .cls-14 {
        fill: url(#_未命名漸層_14);
      }

      .cls-3 {
        letter-spacing: .57em;
      }

      .cls-4 {
        letter-spacing: .53em;
      }

      .cls-5 {
        letter-spacing: .54em;
      }

      .cls-6 {
        letter-spacing: .52em;
      }

      .cls-15 {
        font-family: AdobeMingStd-Light-B5pc-H, 'Adobe Ming Std';
      }

      .cls-15, .cls-13 {
        letter-spacing: .53em;
      }

      .cls-16 {
        fill: #fff;
        font-size: 16px;
      }

      .cls-7 {
        letter-spacing: .52em;
      }

      .cls-8 {
        letter-spacing: .57em;
      }

      .cls-9 {
        letter-spacing: .54em;
      }

      .cls-10 {
        letter-spacing: .54em;
      }

      .cls-11 {
        letter-spacing: .47em;
      }

      .cls-12 {
        letter-spacing: .53em;
      }
    </style>
    <radialGradient id="_未命名漸層_14" data-name="未命名漸層 14" cx="198.11" cy="8.86" fx="198.11" fy="8.86" r="139.77" gradientUnits="userSpaceOnUse">
      <stop offset="0" stop-color="#dfc174"/>
      <stop offset=".43" stop-color="#dcbd71"/>
      <stop offset=".79" stop-color="#d2b36b"/>
      <stop offset="1" stop-color="#caa965"/>
    </radialGradient>
  </defs>
  <g id="_圖層_1-2" data-name="圖層 1">
    <g>
      <text class="cls-16" transform="translate(0 14.08)"><tspan class="cls-4" x="0" y="0">B</tspan><tspan class="cls-10" x="17.28" y="0">E</tspan><tspan class="cls-1" x="34.45" y="0">S</tspan><tspan class="cls-13" x="50.08" y="0">T </tspan><tspan class="cls-6" x="79.68" y="0">L</tspan><tspan class="cls-12" x="96.37" y="0">I</tspan><tspan class="cls-7" x="109.92" y="0">F</tspan><tspan class="cls-4" x="126.29" y="0">E</tspan><tspan class="cls-15" x="143.28" y="0">，</tspan><tspan class="cls-4" x="167.76" y="0" xml:space="preserve"> B</tspan><tspan class="cls-5" x="196.43" y="0">E</tspan><tspan class="cls-7" x="213.6" y="0">S</tspan><tspan class="cls-4" x="229.23" y="0">T </tspan><tspan class="cls-2" x="258.83" y="0">L</tspan><tspan class="cls-3" x="275.79" y="0">O</tspan><tspan class="cls-8" x="296.37" y="0">C</tspan><tspan class="cls-11" x="315.93" y="0">A</tspan><tspan class="cls-9" x="332.51" y="0">T</tspan><tspan class="cls-12" x="350.86" y="0">IO</tspan><tspan class="cls-4" x="384.51" y="0">N</tspan></text>
      <g>
        <path class="cls-14" d="M5.39,8.37c1.57,.26,2.85,1.06,2.85,2.66,0,1.06-.58,1.92-1.47,2.45-.77,.45-1.7,.61-2.62,.61H.53v-.19c1.3-.22,1.39-.34,1.39-1.62V5.42c0-1.22-.16-1.33-1.39-1.55v-.19h3.94c1.17,0,1.83,.26,2.29,.59,.51,.38,.85,1.02,.85,1.71,0,1.49-1.26,2.13-2.21,2.38Zm-1.44-.1c1.86,0,2.39-.75,2.39-2.06,0-1.06-.51-2.19-2.16-2.19-.32,0-.64,.02-.78,.08-.29,.08-.34,.26-.34,.88v3.3h.9Zm-.9,4c0,1.2,.4,1.46,1.49,1.46,1.39,0,2.4-.78,2.4-2.51s-.93-2.62-2.93-2.62h-.96v3.68Z"/>
        <path class="cls-14" d="M25.46,11.81c-.08,.53-.37,1.79-.5,2.27h-7.27v-.19c1.41-.19,1.5-.3,1.5-1.62V5.58c0-1.38-.05-1.47-1.3-1.71v-.19h4.53c1.38,0,1.86,0,2.16-.03,0,.56,.06,1.71,.11,2.18l-.22,.03c-.11-.42-.34-.99-.5-1.26-.3-.45-.5-.48-1.44-.48h-1.75c-.43,0-.46,.05-.46,.5v3.71h1.98c1.09,0,1.23-.21,1.42-1.28h.21v3.01h-.21c-.27-1.12-.38-1.28-1.39-1.28h-2.02v3.79c0,1.07,.43,1.1,1.33,1.1h1.58c.77,0,.99-.14,1.39-.75,.24-.35,.43-.74,.61-1.15l.21,.05Z"/>
        <path class="cls-14" d="M40.47,5.82c-.29-1.12-.77-2.03-2.22-2.03-1.2,0-1.75,.9-1.75,1.84,0,1.23,.69,1.73,1.94,2.46,1.22,.72,2.62,1.52,2.62,3.25s-1.41,2.98-3.28,2.98c-.9,0-1.79-.27-2.27-.46-.1-.43-.34-1.84-.37-2.15l.22-.05c.27,.98,.99,2.32,2.64,2.32,1.36,0,1.94-1.07,1.94-2.14,0-1.23-.83-1.9-1.95-2.59-1.2-.74-2.51-1.5-2.51-3.12,0-1.5,1.23-2.67,3.04-2.67,.98,0,1.58,.19,1.94,.26,.06,.56,.14,1.31,.26,2.06l-.24,.05Z"/>
        <path class="cls-14" d="M59.25,5.93c-.11-.43-.19-.67-.3-.94-.27-.64-.51-.9-1.47-.9h-2V12.32c0,1.2,.11,1.38,1.52,1.57v.19h-4.13v-.19c1.41-.22,1.47-.38,1.47-1.57V4.09h-2.03c-.9,0-1.04,.29-1.26,.7-.21,.42-.29,.72-.42,1.14h-.26c.11-.86,.19-1.73,.24-2.53h.16c.19,.24,.29,.27,.86,.27h6.77c.46,0,.61-.05,.75-.27h.19c0,.66,.06,1.6,.14,2.48l-.24,.05Z"/>
        <path class="cls-14" d="M87.76,11.66c-.08,.45-.4,1.84-.58,2.42h-7.09v-.19c1.42-.19,1.5-.32,1.5-1.63V5.45c0-1.31-.14-1.42-1.39-1.58v-.19h3.83v.19c-1.18,.21-1.3,.27-1.3,1.58v7.03c0,1.14,.19,1.18,1.26,1.18,.3,0,.8-.02,1.07-.02,.94,0,1.33-.02,1.74-.62,.27-.4,.5-.82,.72-1.42l.22,.06Z"/>
        <path class="cls-14" d="M96.9,14.08v-.19c1.26-.22,1.39-.37,1.39-1.6V5.48c0-1.33-.11-1.41-1.39-1.62v-.19h3.94v.19c-1.3,.18-1.41,.29-1.41,1.62v6.8c0,1.22,.11,1.36,1.41,1.6v.19h-3.94Z"/>
        <path class="cls-14" d="M117.12,5.8c-.08-.27-.13-.45-.22-.72-.32-.83-.62-.98-1.79-.98h-1.65c-.43,0-.48,.05-.48,.48v3.86h2.1c1.18,0,1.26-.11,1.52-1.25h.21v2.99h-.21c-.24-1.15-.37-1.28-1.55-1.28h-2.06v3.36c0,1.26,.06,1.42,1.5,1.62v.19h-4.03v-.19c1.25-.16,1.39-.32,1.39-1.62V5.48c0-1.31-.11-1.42-1.39-1.62v-.19h4.72c1.49,0,1.91-.02,2.08-.03-.02,.42,.03,1.54,.1,2.13l-.22,.03Z"/>
        <path class="cls-14" d="M134.47,11.81c-.08,.53-.37,1.79-.5,2.27h-7.27v-.19c1.41-.19,1.5-.3,1.5-1.62V5.58c0-1.38-.05-1.47-1.3-1.71v-.19h4.53c1.38,0,1.86,0,2.16-.03,0,.56,.06,1.71,.11,2.18l-.22,.03c-.11-.42-.34-.99-.5-1.26-.3-.45-.5-.48-1.44-.48h-1.75c-.43,0-.46,.05-.46,.5v3.71h1.98c1.09,0,1.23-.21,1.42-1.28h.21v3.01h-.21c-.27-1.12-.38-1.28-1.39-1.28h-2.02v3.79c0,1.07,.43,1.1,1.33,1.1h1.58c.77,0,.99-.14,1.39-.75,.24-.35,.43-.74,.61-1.15l.21,.05Z"/>
        <path class="cls-14" d="M150,10.35c.72-.5,1.54-1.3,1.54-2.35-.18,.1-.34,.16-.53,.16-.71,0-1.15-.51-1.15-1.06,0-.62,.38-1.15,1.15-1.15,.62,0,1.38,.4,1.38,1.6,0,1.28-.9,2.29-2.14,3.14l-.24-.34Z"/>
        <path class="cls-14" d="M184.55,8.37c1.57,.26,2.85,1.06,2.85,2.66,0,1.06-.58,1.92-1.47,2.45-.77,.45-1.7,.61-2.62,.61h-3.62v-.19c1.3-.22,1.39-.34,1.39-1.62V5.42c0-1.22-.16-1.33-1.39-1.55v-.19h3.94c1.17,0,1.83,.26,2.29,.59,.51,.38,.85,1.02,.85,1.71,0,1.49-1.26,2.13-2.21,2.38Zm-1.44-.1c1.86,0,2.39-.75,2.39-2.06,0-1.06-.51-2.19-2.16-2.19-.32,0-.64,.02-.78,.08-.29,.08-.34,.26-.34,.88v3.3h.9Zm-.9,4c0,1.2,.4,1.46,1.49,1.46,1.39,0,2.4-.78,2.4-2.51s-.93-2.62-2.93-2.62h-.96v3.68Z"/>
        <path class="cls-14" d="M204.61,11.81c-.08,.53-.37,1.79-.5,2.27h-7.27v-.19c1.41-.19,1.5-.3,1.5-1.62V5.58c0-1.38-.05-1.47-1.3-1.71v-.19h4.53c1.38,0,1.86,0,2.16-.03,0,.56,.06,1.71,.11,2.18l-.22,.03c-.11-.42-.34-.99-.5-1.26-.3-.45-.5-.48-1.44-.48h-1.75c-.43,0-.46,.05-.46,.5v3.71h1.98c1.09,0,1.23-.21,1.42-1.28h.21v3.01h-.21c-.27-1.12-.38-1.28-1.39-1.28h-2.02v3.79c0,1.07,.43,1.1,1.33,1.1h1.58c.77,0,.99-.14,1.39-.75,.24-.35,.43-.74,.61-1.15l.21,.05Z"/>
        <path class="cls-14" d="M219.62,5.82c-.29-1.12-.77-2.03-2.22-2.03-1.2,0-1.75,.9-1.75,1.84,0,1.23,.69,1.73,1.94,2.46,1.22,.72,2.62,1.52,2.62,3.25s-1.41,2.98-3.28,2.98c-.9,0-1.79-.27-2.27-.46-.1-.43-.34-1.84-.37-2.15l.22-.05c.27,.98,.99,2.32,2.64,2.32,1.36,0,1.94-1.07,1.94-2.14,0-1.23-.83-1.9-1.95-2.59-1.2-.74-2.51-1.5-2.51-3.12,0-1.5,1.23-2.67,3.04-2.67,.98,0,1.58,.19,1.94,.26,.06,.56,.14,1.31,.26,2.06l-.24,.05Z"/>
        <path class="cls-14" d="M238.4,5.93c-.11-.43-.19-.67-.3-.94-.27-.64-.51-.9-1.47-.9h-2V12.32c0,1.2,.11,1.38,1.52,1.57v.19h-4.13v-.19c1.41-.22,1.47-.38,1.47-1.57V4.09h-2.03c-.9,0-1.04,.29-1.26,.7-.21,.42-.29,.72-.42,1.14h-.26c.11-.86,.19-1.73,.24-2.53h.16c.19,.24,.29,.27,.86,.27h6.77c.46,0,.61-.05,.75-.27h.19c0,.66,.06,1.6,.14,2.48l-.24,.05Z"/>
        <path class="cls-14" d="M266.91,11.66c-.08,.45-.4,1.84-.58,2.42h-7.09v-.19c1.42-.19,1.5-.32,1.5-1.63V5.45c0-1.31-.14-1.42-1.39-1.58v-.19h3.83v.19c-1.18,.21-1.3,.27-1.3,1.58v7.03c0,1.14,.19,1.18,1.26,1.18,.3,0,.8-.02,1.07-.02,.94,0,1.33-.02,1.74-.62,.27-.4,.5-.82,.72-1.42l.22,.06Z"/>
        <path class="cls-14" d="M281.63,3.45c2.69,0,5.06,2.16,5.06,5.28,0,3.36-2.32,5.59-5.19,5.59s-5.07-2.31-5.07-5.28,1.98-5.59,5.2-5.59Zm-.3,.35c-1.86,0-3.52,1.67-3.52,4.77s1.63,5.38,4.05,5.38c1.89,0,3.46-1.63,3.46-4.72,0-3.46-1.68-5.43-3.99-5.43Z"/>
        <path class="cls-14" d="M306.27,11.66c-.14,.53-.61,1.89-.85,2.29-.42,.11-1.57,.37-2.66,.37-3.94,0-5.76-2.64-5.76-5.41,0-3.35,2.42-5.46,6.03-5.46,1.28,0,2.26,.27,2.77,.34,.08,.74,.14,1.62,.24,2.27l-.26,.05c-.29-.98-.53-1.68-1.42-2.02-.51-.19-1.22-.27-1.81-.27-2.83,0-4.18,2.27-4.18,4.8,0,3.19,1.6,5.33,4.45,5.33,1.79,0,2.51-1.02,3.19-2.37l.26,.08Z"/>
        <path class="cls-14" d="M321.94,14.08v-.19c.88-.16,1.12-.29,.93-.86-.21-.69-.61-1.86-1.09-3.19h-3.22c-.35,1.02-.66,1.84-.9,2.61-.35,1.09-.11,1.2,1.1,1.44v.19h-3.34v-.19c.9-.16,1.17-.27,1.76-1.78l3.33-8.63,.22-.03c.99,2.91,2.03,5.84,3.11,8.82,.5,1.39,.69,1.39,1.7,1.62v.19h-3.6Zm-1.73-8.79c-.51,1.36-.99,2.75-1.49,4.08h2.91l-1.42-4.08Z"/>
        <path class="cls-14" d="M341.68,5.93c-.11-.43-.19-.67-.3-.94-.27-.64-.51-.9-1.47-.9h-2V12.32c0,1.2,.11,1.38,1.52,1.57v.19h-4.13v-.19c1.41-.22,1.47-.38,1.47-1.57V4.09h-2.03c-.9,0-1.04,.29-1.26,.7-.21,.42-.29,.72-.42,1.14h-.26c.11-.86,.19-1.73,.24-2.53h.16c.19,.24,.29,.27,.86,.27h6.77c.46,0,.61-.05,.75-.27h.19c0,.66,.06,1.6,.14,2.48l-.24,.05Z"/>
        <path class="cls-14" d="M351.39,14.08v-.19c1.26-.22,1.39-.37,1.39-1.6V5.48c0-1.33-.11-1.41-1.39-1.62v-.19h3.94v.19c-1.3,.18-1.41,.29-1.41,1.62v6.8c0,1.22,.11,1.36,1.41,1.6v.19h-3.94Z"/>
        <path class="cls-14" d="M370.26,3.45c2.69,0,5.06,2.16,5.06,5.28,0,3.36-2.32,5.59-5.19,5.59s-5.07-2.31-5.07-5.28,1.98-5.59,5.2-5.59Zm-.3,.35c-1.86,0-3.52,1.67-3.52,4.77s1.63,5.38,4.05,5.38c1.89,0,3.46-1.63,3.46-4.72,0-3.46-1.68-5.43-3.99-5.43Z"/>
        <path class="cls-14" d="M395.7,3.87c-1.14,.26-1.23,.45-1.26,1.54-.02,.42-.05,.7-.05,2.1v6.75h-.26l-7.19-8.85v4.59c0,1.54,.03,2.03,.05,2.54,.03,.93,.29,1.14,1.54,1.34v.19h-3.62v-.19c1.18-.27,1.44-.42,1.47-1.36,.02-.42,.05-1.01,.05-2.53V5.26c0-.29-.06-.48-.22-.67-.38-.48-.86-.61-1.46-.72v-.19h2.24l6.9,8.37V7.5c0-1.39-.02-1.62-.05-2.16-.06-1.02-.27-1.31-1.6-1.47v-.19h3.46v.19Z"/>
      </g>
    </g>
  </g>
</svg>